<svg width="582" height="328" viewBox="0 0 582 328" fill="none" xmlns="http://www.w3.org/2000/svg">
<path d="M356.72 214.396C340.498 216.38 328.85 207.247 325.642 180.916C321.206 144.51 330.663 84.3008 364.081 80.2135C378.127 78.4964 389.099 85.4144 393.678 105.201L457.861 93.8939C447.939 45.1508 412.132 20.8912 363.827 26.7982C293.099 35.4488 251.056 106.573 261.273 190.438C268.044 246.024 305.058 274.156 356.969 267.808C409.677 261.363 446.436 220.212 457.526 164.965L389.906 176.875C383.88 196.653 373.228 212.377 356.72 214.396Z" fill="url(#paint0_linear_135_209)" stroke="url(#paint1_linear_135_209)" stroke-width="2" stroke-miterlimit="10"/>
<path d="M396.488 150.091L404.799 131.516L407.609 131.008L399.298 149.583L396.488 150.091ZM396.559 142.225C395.756 142.37 395.014 142.317 394.335 142.066C393.653 141.799 393.07 141.36 392.586 140.748C392.115 140.118 391.795 139.338 391.628 138.409C391.461 137.48 391.489 136.646 391.714 135.906C391.954 135.164 392.347 134.548 392.893 134.059C393.439 133.57 394.113 133.253 394.916 133.108C395.719 132.963 396.462 133.023 397.144 133.29C397.826 133.557 398.401 133.998 398.87 134.612C399.338 135.227 399.656 135.999 399.823 136.928C399.99 137.857 399.963 138.699 399.742 139.454C399.517 140.194 399.132 140.808 398.586 141.297C398.037 141.771 397.361 142.08 396.559 142.225ZM396.21 140.288C396.729 140.194 397.108 139.906 397.346 139.424C397.582 138.926 397.62 138.236 397.461 137.355C397.303 136.473 397.027 135.848 396.636 135.48C396.242 135.096 395.785 134.951 395.265 135.045C394.761 135.136 394.384 135.432 394.133 135.932C393.894 136.414 393.855 137.096 394.013 137.978C394.169 138.844 394.444 139.469 394.839 139.853C395.249 140.234 395.706 140.379 396.21 140.288ZM409.181 147.991C408.393 148.133 407.652 148.08 406.957 147.832C406.275 147.565 405.7 147.125 405.231 146.51C404.76 145.88 404.441 145.1 404.274 144.171C404.106 143.242 404.135 142.408 404.359 141.668C404.584 140.928 404.969 140.314 405.515 139.825C406.077 139.333 406.751 139.016 407.538 138.874C408.357 138.726 409.107 138.785 409.79 139.052C410.472 139.319 411.047 139.76 411.515 140.374C411.984 140.989 412.301 141.76 412.469 142.689C412.636 143.619 412.609 144.461 412.387 145.216C412.163 145.956 411.778 146.57 411.232 147.059C410.683 147.532 409.999 147.843 409.181 147.991ZM408.832 146.054C409.351 145.96 409.73 145.672 409.969 145.19C410.204 144.692 410.242 144.003 410.083 143.121C409.927 142.255 409.652 141.63 409.258 141.246C408.864 140.862 408.407 140.717 407.887 140.811C407.383 140.902 407.006 141.198 406.755 141.698C406.516 142.18 406.477 142.862 406.635 143.744C406.794 144.626 407.071 145.259 407.465 145.643C407.872 146.008 408.328 146.145 408.832 146.054ZM423.933 145.421C422.627 145.657 421.376 145.664 420.182 145.441C419.003 145.215 417.935 144.79 416.977 144.167C416.035 143.541 415.242 142.749 414.598 141.792C413.97 140.833 413.546 139.739 413.324 138.511C413.103 137.282 413.119 136.109 413.373 134.99C413.642 133.868 414.117 132.847 414.797 131.928C415.476 131.008 416.329 130.236 417.355 129.611C418.38 128.987 419.539 128.558 420.83 128.325C422.136 128.088 423.371 128.085 424.534 128.313C425.713 128.539 426.773 128.965 427.715 129.592C428.673 130.215 429.474 131.005 430.117 131.962C430.758 132.903 431.191 133.996 431.415 135.24C431.636 136.468 431.614 137.651 431.347 138.788C431.078 139.91 430.603 140.931 429.923 141.85C429.256 142.751 428.41 143.514 427.385 144.139C426.375 144.76 425.225 145.188 423.933 145.421ZM423.323 142.166C424.063 142.032 424.717 141.784 425.286 141.421C425.87 141.055 426.356 140.593 426.743 140.035C427.13 139.477 427.392 138.853 427.527 138.162C427.679 137.468 427.684 136.727 427.542 135.94C427.4 135.153 427.137 134.46 426.753 133.863C426.385 133.263 425.922 132.769 425.365 132.382C424.823 131.993 424.215 131.729 423.539 131.591C422.864 131.453 422.157 131.45 421.417 131.584C420.677 131.718 420.014 131.968 419.43 132.334C418.861 132.697 418.383 133.157 417.996 133.715C417.609 134.273 417.34 134.899 417.188 135.593C417.053 136.284 417.056 137.023 417.198 137.81C417.337 138.582 417.592 139.276 417.963 139.891C418.347 140.489 418.809 140.982 419.351 141.372C419.909 141.759 420.525 142.021 421.2 142.159C421.875 142.298 422.583 142.3 423.323 142.166ZM437.684 133.252L445.619 131.818L446.172 134.888L438.237 136.323L437.684 133.252ZM439.605 142.295L435.779 142.987L432.801 126.453L445.295 124.194L445.848 127.264L437.18 128.831L439.605 142.295ZM452.768 130.525L460.703 129.09L461.256 132.161L453.321 133.596L452.768 130.525ZM454.689 139.567L450.863 140.259L447.885 123.725L460.378 121.466L460.931 124.537L452.264 126.104L454.689 139.567Z" fill="white"/>
<path d="M250.388 42.3057L189.613 285.875L133.593 292.694L183.092 94.3541L142.183 100.266L153.478 55.0369L250.388 42.3057Z" fill="url(#paint2_linear_135_209)" stroke="url(#paint3_linear_135_209)" stroke-width="2" stroke-miterlimit="10"/>
<defs>
<linearGradient id="paint0_linear_135_209" x1="358.807" y1="317.198" x2="358.807" y2="16.1359" gradientUnits="userSpaceOnUse">
<stop stop-color="#CCCCCC"/>
<stop offset="0.1209" stop-color="#D9DADA"/>
<stop offset="0.2958" stop-color="#E4E6E7"/>
<stop offset="0.5241" stop-color="#EBEDEF"/>
<stop offset="1" stop-color="#EDEFF1"/>
</linearGradient>
<linearGradient id="paint1_linear_135_209" x1="358.836" y1="25.6148" x2="358.836" y2="269.002" gradientUnits="userSpaceOnUse">
<stop stop-color="#EDEFF1"/>
<stop offset="1" stop-color="#DFE3E5"/>
</linearGradient>
<linearGradient id="paint2_linear_135_209" x1="153.167" y1="172.384" x2="266.426" y2="158.663" gradientUnits="userSpaceOnUse">
<stop stop-color="#CCCCCC"/>
<stop offset="0.12" stop-color="#D8D9DA"/>
<stop offset="0.3" stop-color="#E4E5E7"/>
<stop offset="0.52" stop-color="#EBECEE"/>
<stop offset="1" stop-color="#EDEFF1"/>
</linearGradient>
<linearGradient id="paint3_linear_135_209" x1="150.74" y1="172.68" x2="268.853" y2="158.371" gradientUnits="userSpaceOnUse">
<stop stop-color="#EDEFF1"/>
<stop offset="1" stop-color="#DFE3E5"/>
</linearGradient>
</defs>
</svg>
