<svg width="31" height="31" viewBox="0 0 31 31" fill="none" xmlns="http://www.w3.org/2000/svg">
<circle cx="15.5" cy="15.5" r="15.5" fill="#23252E"/>
<path d="M22.9965 13.8767C23.0302 12.8589 22.817 11.8487 22.3765 10.9399C22.0776 10.567 21.6629 10.3153 21.2045 10.2288C19.3085 10.0492 17.4048 9.97563 15.5013 10.0083C13.6047 9.97415 11.7078 10.0454 9.8185 10.2216C9.44498 10.2926 9.09931 10.4754 8.82367 10.7479C8.21042 11.3381 8.14228 12.3479 8.07415 13.2012C7.97528 14.7355 7.97528 16.2749 8.07415 17.8092C8.09386 18.2895 8.16238 18.7662 8.27856 19.2314C8.36072 19.5906 8.52694 19.9228 8.76235 20.1985C9.03986 20.4854 9.39358 20.6787 9.77762 20.7532C11.2466 20.9424 12.7268 21.0208 14.2066 20.9878C16.5915 21.0234 18.6834 20.9878 21.1568 20.7887C21.5503 20.7188 21.9139 20.5253 22.1993 20.2341C22.3901 20.0349 22.5326 19.7911 22.615 19.523C22.8587 18.7426 22.9783 17.9259 22.9693 17.1052C22.9965 16.707 22.9965 14.3034 22.9965 13.8767ZM13.9613 17.5318V13.1301L17.9952 15.3416C16.8641 15.9959 15.3718 16.7354 13.9613 17.5318Z" fill="white"/>
</svg>
