<svg width="26" height="26" viewBox="0 0 26 26" fill="none" xmlns="http://www.w3.org/2000/svg">
<path fill-rule="evenodd" clip-rule="evenodd" d="M13 26C20.1797 26 26 20.1797 26 13C26 5.8203 20.1797 0 13 0C5.8203 0 0 5.8203 0 13C0 20.1797 5.8203 26 13 26ZM19.2071 11.2071C19.5976 10.8166 19.5976 10.1834 19.2071 9.79289C18.8166 9.40237 18.1834 9.40237 17.7929 9.79289L11.5 16.0858L8.20711 12.7929C7.81658 12.4024 7.18342 12.4024 6.79289 12.7929C6.40237 13.1834 6.40237 13.8166 6.79289 14.2071L10.6515 18.0657C11.1201 18.5343 11.8799 18.5343 12.3485 18.0657L19.2071 11.2071Z" fill="#60CDF6"/>
</svg>
