<svg width="31" height="31" viewBox="0 0 31 31" fill="none" xmlns="http://www.w3.org/2000/svg">
<circle cx="15.5" cy="15.5" r="15.5" fill="#23252E"/>
<path fill-rule="evenodd" clip-rule="evenodd" d="M13.967 13.2221C14.4175 12.9211 14.9471 12.7604 15.489 12.7604C15.8487 12.7604 16.2049 12.8313 16.5373 12.9689C16.8697 13.1066 17.1717 13.3084 17.4261 13.5628C17.6804 13.8172 17.8822 14.1192 18.0199 14.4516C18.1576 14.7839 18.2284 15.1402 18.2284 15.4999C18.2284 16.0417 18.0678 16.5714 17.7668 17.0219C17.4657 17.4724 17.0379 17.8235 16.5373 18.0309C16.0367 18.2382 15.4859 18.2925 14.9545 18.1868C14.4231 18.0811 13.935 17.8201 13.5518 17.437C13.1687 17.0539 12.9078 16.5658 12.8021 16.0344C12.6964 15.5029 12.7506 14.9521 12.958 14.4516C13.1653 13.951 13.5165 13.5231 13.967 13.2221ZM23.2214 20.8795C23.4713 20.2443 23.6167 19.5728 23.6522 18.8911V18.8801C23.6679 18.4662 23.6588 18.1964 23.6448 17.7844C23.6294 17.3277 23.608 16.6962 23.608 15.4999V12.1197C23.5879 11.4368 23.4573 10.7616 23.2214 10.1203C23.0249 9.59248 22.7158 9.11375 22.3156 8.71746C21.911 8.2958 21.4163 7.97104 20.8685 7.76748C20.2273 7.53154 19.5521 7.40097 18.8691 7.38086H15.489H12.1088C11.4258 7.40097 10.7506 7.53154 10.1094 7.76748C9.58277 7.96642 9.10455 8.2752 8.70651 8.67328C8.28484 9.07788 7.96009 9.57256 7.75653 10.1203C7.51965 10.7609 7.39267 11.4369 7.38095 12.1197V15.4999V18.8801C7.39267 19.5629 7.51965 20.2389 7.75653 20.8795C7.95298 21.4073 8.26208 21.8861 8.66232 22.2823C9.06693 22.704 9.56161 23.0288 10.1094 23.2323C10.7506 23.4683 11.4258 23.5988 12.1088 23.619H15.489H18.8691C19.5521 23.5988 20.2273 23.4683 20.8685 23.2323C21.3984 23.0179 21.8797 22.6991 22.2839 22.2949C22.6881 21.8907 23.0069 21.4093 23.2214 20.8795ZM21.277 9.72292C21.5459 9.99182 21.7533 10.3159 21.8848 10.6727V10.6616C22.0749 11.1473 22.1723 11.6644 22.172 12.186V15.4999V18.8138C22.1669 19.3349 22.0697 19.851 21.8848 20.3382C21.7533 20.695 21.5459 21.019 21.277 21.2879C21.0081 21.5568 20.6841 21.7642 20.3272 21.8957C19.84 22.0806 19.3239 22.1778 18.8029 22.1829H15.489H12.1751C11.6732 22.166 11.1772 22.0691 10.7059 21.8957C10.3491 21.7642 10.025 21.5568 9.75615 21.2879C9.48725 21.019 9.27988 20.695 9.14836 20.3382C8.96916 19.8494 8.87211 19.3343 8.86116 18.8138V15.4999V12.186C8.85434 11.6686 8.93271 11.1536 9.09313 10.6616C9.23128 10.315 9.44161 10.0018 9.71016 9.74279C9.97871 9.48376 10.2993 9.28487 10.6507 9.15932C11.1379 8.97444 11.654 8.87721 12.1751 8.87211H15.489H18.8029C19.3213 8.86304 19.8373 8.94531 20.3272 9.11513C20.6841 9.24665 21.0081 9.45402 21.277 9.72292ZM13.8758 19.3982C14.3872 19.6104 14.9353 19.7196 15.489 19.7196C16.324 19.7218 17.1409 19.4762 17.8363 19.0138C18.5317 18.5515 19.0742 17.8932 19.3953 17.1224C19.7164 16.3515 19.8015 15.5027 19.64 14.6835C19.4784 13.8642 19.0774 13.1113 18.4877 12.5201C17.898 11.9288 17.1461 11.5258 16.3273 11.3621C15.5085 11.1984 14.6594 11.2813 13.8878 11.6004C13.1161 11.9194 12.4564 12.4603 11.9922 13.1544C11.5281 13.8486 11.2803 14.6649 11.2803 15.4999C11.2788 16.0535 11.3866 16.602 11.5975 17.1139C11.8083 17.6258 12.1181 18.091 12.5091 18.483C12.9 18.875 13.3645 19.186 13.8758 19.3982ZM19.2731 11.785C19.4373 11.9675 19.6633 12.0828 19.9075 12.1087C20.1517 12.0828 20.3777 11.9675 20.5419 11.785C20.7061 11.6025 20.797 11.3656 20.797 11.12C20.797 10.8745 20.7061 10.6376 20.5419 10.4551C20.3777 10.2725 20.1517 10.1572 19.9075 10.1314C19.6633 10.1572 19.4373 10.2725 19.2731 10.4551C19.1088 10.6376 19.018 10.8745 19.018 11.12C19.018 11.3656 19.1088 11.6025 19.2731 11.785Z" fill="white"/>
</svg>
