<svg width="26" height="26" viewBox="0 0 26 26" fill="none" xmlns="http://www.w3.org/2000/svg">
<path fill-rule="evenodd" clip-rule="evenodd" d="M13 26C20.1797 26 26 20.1797 26 13C26 5.8203 20.1797 0 13 0C5.8203 0 0 5.8203 0 13C0 20.1797 5.8203 26 13 26ZM14.841 9.66606L13.7608 6.34164C13.5214 5.60459 12.4786 5.60459 12.2392 6.34164L11.159 9.66606C11.0519 9.99568 10.7447 10.2188 10.3981 10.2188H6.90264C6.12766 10.2188 5.80544 11.2105 6.43241 11.6661L9.26033 13.7207C9.54072 13.9244 9.65805 14.2855 9.55095 14.6151L8.47078 17.9395C8.2313 18.6766 9.07488 19.2895 9.70185 18.8339L12.5298 16.7793C12.8102 16.5756 13.1898 16.5756 13.4702 16.7793L16.2981 18.8339C16.9251 19.2895 17.7687 18.6766 17.5292 17.9395L16.4491 14.6151C16.342 14.2855 16.4593 13.9244 16.7397 13.7207L19.5676 11.6661C20.1946 11.2105 19.8723 10.2188 19.0974 10.2188H15.6019C15.2553 10.2188 14.9481 9.99568 14.841 9.66606Z" fill="#EF3833"/>
</svg>
