<svg width="31" height="31" viewBox="0 0 31 31" fill="none" xmlns="http://www.w3.org/2000/svg">
<circle cx="15.5" cy="15.5" r="15.5" fill="#23252E"/>
<circle cx="15.5" cy="15.5" r="11.5" fill="white"/>
<path d="M15.5 3C13.0277 3 10.611 3.73311 8.55538 5.10663C6.49976 6.48015 4.89761 8.43238 3.95151 10.7165C3.00542 13.0005 2.75787 15.5139 3.24019 17.9386C3.7225 20.3634 4.91301 22.5907 6.66117 24.3388C8.40933 26.087 10.6366 27.2775 13.0614 27.7598C15.4861 28.2421 17.9995 27.9946 20.2835 27.0485C22.5676 26.1024 24.5199 24.5002 25.8934 22.4446C27.2669 20.389 28 17.9723 28 15.5C28.0001 13.8584 27.6769 12.2329 27.0488 10.7163C26.4206 9.19966 25.4999 7.82162 24.3391 6.66086C23.1784 5.5001 21.8003 4.57936 20.2837 3.95123C18.7671 3.32309 17.1416 2.99986 15.5 3ZM19.4744 21.9406C19.4276 22.0572 19.3564 22.1626 19.2656 22.2495C19.1748 22.3364 19.0664 22.4028 18.9478 22.4445C18.8292 22.4861 18.7031 22.5018 18.5779 22.4907C18.4527 22.4796 18.3313 22.4418 18.2219 22.38L14.8286 19.7432L12.6507 21.7525C12.6001 21.7898 12.541 21.8139 12.4788 21.8224C12.4165 21.8309 12.3531 21.8236 12.2944 21.8012L12.7119 18.0656L12.7253 18.0762L12.7338 18.0024C12.7338 18.0024 18.8401 12.4431 19.0888 12.2062C19.3406 11.9699 19.2576 11.9187 19.2576 11.9187C19.2719 11.6305 18.8057 11.9187 18.8057 11.9187L10.715 17.1237L7.34564 15.9762C7.34564 15.9762 6.82814 15.7906 6.77939 15.3825C6.72814 14.9775 7.3625 14.7575 7.3625 14.7575L20.7588 9.43561C20.7588 9.43561 21.86 8.94496 21.86 9.7575L19.4744 21.9406Z" fill="#23252E"/>
</svg>
